<?xml version="1.0" standalone="no"?><!DOCTYPE svg PUBLIC "-//W3C//DTD SVG 1.1//EN" "http://www.w3.org/Graphics/SVG/1.1/DTD/svg11.dtd"><svg t="1572330342940" class="icon" viewBox="0 0 1024 1024" version="1.1" xmlns="http://www.w3.org/2000/svg" p-id="1362" xmlns:xlink="http://www.w3.org/1999/xlink" width="200" height="200"><defs><style type="text/css"></style></defs><path d="M718.17382813 222.50058594H306.95380859c-37.85888672 0-68.53710938 30.67470703-68.53710937 68.53359375v22.84541015h548.29160156V291.03417969c0-37.85888672-30.67558594-68.53359375-68.53623047-68.53359375M598.45800781 176.81152344l10.08457032 72.10283203H416.58681641l10.0828125-72.10283203H598.45800781m5.48876953-45.6890625H421.18261719c-18.85253906 0-36.38671875 15.25957031-39.01992188 33.95390625l-13.36376953 95.59599609c-2.61035156 18.67148438 10.6875 33.93193359 29.53916016 33.9319336h228.45410156c18.85078125 0 32.14951172-15.25957031 29.51630859-33.95478516l-13.36376953-95.59511719c-2.61298828-18.67236328-20.14716797-33.93193359-38.99794922-33.93193359m125.6484375 228.4453125H295.53154297c-25.12089844 0-43.83984375 20.48027344-41.56347656 45.50976562l37.43701171 411.55839844c2.25263672 25.03125 24.69726563 45.51064453 49.81816407 45.51064453H683.90527344c25.12089844 0 47.56464844-20.48027344 49.81904297-45.50976562l37.43613281-411.55839844c2.27460937-25.03125-16.44433594-45.51064453-41.56523438-45.51064453M421.18261719 770.76757813h-68.53710938l-22.84541015-319.8225586h91.38164062V770.76757813z m137.07246093-1e-8H466.8734375V450.94589844h91.38164062V770.76757813z m114.22705079 0h-68.53710938V450.94589844h91.38251953L672.48212891 770.76757813z" fill="#d81e06" p-id="1363"></path></svg>